HIERARCHY
ROOT Hips
{
	OFFSET 0.000000 97.167313 0.000000
	CHANNELS 6 Xposition Yposition Zposition Xrotation Yrotation Zrotation
	JOINT Spine
	{
		OFFSET 0.000000 13.784798 0.064400
		CHANNELS 3 Xrotation Yrotation Zrotation
		JOINT Spine1
		{
			OFFSET 0.000000 12.037903 0.404700
			CHANNELS 3 Xrotation Yrotation Zrotation
			JOINT Spine2
			{
				OFFSET 0.000000 17.795601 0.420200
				CHANNELS 3 Xrotation Yrotation Zrotation
				JOINT Neck
				{
					OFFSET 0.000000 39.131302 11.954600
					CHANNELS 3 Xrotation Yrotation Zrotation
					JOINT Head
					{
						OFFSET 0.000000 14.456192 15.627699
						CHANNELS 3 Xrotation Yrotation Zrotation
						JOINT HeadTop_End
						{
							OFFSET 0.000000 15.703506 7.603401
							CHANNELS 3 Xrotation Yrotation Zrotation
							End Site
							{
								OFFSET 0.000000 17.447403 0.000000
							}
						}
					}
				}
				JOINT LeftShoulder
				{
					OFFSET 17.399500 24.608795 1.168800
					CHANNELS 3 Xrotation Yrotation Zrotation
					JOINT LeftArm
					{
						OFFSET 18.980635 5.765305 1.818600
						CHANNELS 3 Xrotation Yrotation Zrotation
						JOINT LeftForeArm
						{
							OFFSET 49.290169 0.000000 0.000000
							CHANNELS 3 Xrotation Yrotation Zrotation
							JOINT LeftHand
							{
								OFFSET 31.562012 0.000000 0.000000
								CHANNELS 3 Xrotation Yrotation Zrotation
								JOINT LeftHandThumb1
								{
									OFFSET 6.133995 -4.388519 7.076070
									CHANNELS 3 Xrotation Yrotation Zrotation
									JOINT LeftHandThumb2
									{
										OFFSET 6.037666 -3.485840 3.485847
										CHANNELS 3 Xrotation Yrotation Zrotation
										JOINT LeftHandThumb3
										{
											OFFSET 6.496506 -3.750763 3.750761
											CHANNELS 3 Xrotation Yrotation Zrotation
											JOINT LeftHandThumb4
											{
												OFFSET 5.616882 -3.242905 3.242910
												CHANNELS 3 Xrotation Yrotation Zrotation
												End Site
												{
													OFFSET -1.254608 7.132141 0.375429
												}
											}
										}
									}
								}
								JOINT LeftHandPinky1
								{
									OFFSET 18.920792 -0.453171 -11.426712
									CHANNELS 3 Xrotation Yrotation Zrotation
									JOINT LeftHandPinky2
									{
										OFFSET 4.919586 0.000000 0.000000
										CHANNELS 3 Xrotation Yrotation Zrotation
										JOINT LeftHandPinky3
										{
											OFFSET 5.233047 0.000000 0.000000
											CHANNELS 3 Xrotation Yrotation Zrotation
											JOINT LeftHandPinky4
											{
												OFFSET 5.571716 0.000000 0.000000
												CHANNELS 3 Xrotation Yrotation Zrotation
												End Site
												{
													OFFSET -3.459808 4.342407 -0.466164
												}
											}
										}
									}
								}
								JOINT LeftHandRing1
								{
									OFFSET 22.726120 -0.094986 -6.500475
									CHANNELS 3 Xrotation Yrotation Zrotation
									JOINT LeftHandRing2
									{
										OFFSET 6.408615 0.000000 0.000000
										CHANNELS 3 Xrotation Yrotation Zrotation
										JOINT LeftHandRing3
										{
											OFFSET 6.150223 0.000000 0.000000
											CHANNELS 3 Xrotation Yrotation Zrotation
											JOINT LeftHandRing4
											{
												OFFSET 6.145386 0.000000 0.000000
												CHANNELS 3 Xrotation Yrotation Zrotation
												End Site
												{
													OFFSET -3.671402 4.923981 -0.202372
												}
											}
										}
									}
								}
								JOINT LeftHandMiddle1
								{
									OFFSET 23.373947 0.000000 0.000001
									CHANNELS 3 Xrotation Yrotation Zrotation
									JOINT LeftHandMiddle2
									{
										OFFSET 6.996567 0.000000 0.000000
										CHANNELS 3 Xrotation Yrotation Zrotation
										JOINT LeftHandMiddle3
										{
											OFFSET 7.015945 0.000000 0.000000
											CHANNELS 3 Xrotation Yrotation Zrotation
											JOINT LeftHandMiddle4
											{
												OFFSET 7.721573 0.000000 0.000000
												CHANNELS 3 Xrotation Yrotation Zrotation
												End Site
												{
													OFFSET -4.651108 6.158463 0.251582
												}
											}
										}
									}
								}
								JOINT LeftHandIndex1
								{
									OFFSET 21.310577 -0.490082 6.209344
									CHANNELS 3 Xrotation Yrotation Zrotation
									JOINT LeftHandIndex2
									{
										OFFSET 7.536453 0.000000 0.000000
										CHANNELS 3 Xrotation Yrotation Zrotation
										JOINT LeftHandIndex3
										{
											OFFSET 7.512344 0.000000 0.000000
											CHANNELS 3 Xrotation Yrotation Zrotation
											JOINT LeftHandIndex4
											{
												OFFSET 10.212402 0.000000 0.000001
												CHANNELS 3 Xrotation Yrotation Zrotation
												End Site
												{
													OFFSET -5.180801 8.690506 1.388433
												}
											}
										}
									}
								}
							}
						}
					}
				}
				JOINT RightShoulder
				{
					OFFSET -17.399500 24.608795 1.168800
					CHANNELS 3 Xrotation Yrotation Zrotation
					JOINT RightArm
					{
						OFFSET -18.980635 5.765305 1.818600
						CHANNELS 3 Xrotation Yrotation Zrotation
						JOINT RightForeArm
						{
							OFFSET -49.290169 0.000000 0.000000
							CHANNELS 3 Xrotation Yrotation Zrotation
							JOINT RightHand
							{
								OFFSET -31.562012 0.000000 0.000000
								CHANNELS 3 Xrotation Yrotation Zrotation
								JOINT RightHandThumb1
								{
									OFFSET -6.133995 -4.388519 7.076070
									CHANNELS 3 Xrotation Yrotation Zrotation
									JOINT RightHandThumb2
									{
										OFFSET -6.037666 -3.485840 3.485847
										CHANNELS 3 Xrotation Yrotation Zrotation
										JOINT RightHandThumb3
										{
											OFFSET -6.496506 -3.750763 3.750761
											CHANNELS 3 Xrotation Yrotation Zrotation
											JOINT RightHandThumb4
											{
												OFFSET -5.616882 -3.242905 3.242910
												CHANNELS 3 Xrotation Yrotation Zrotation
												End Site
												{
													OFFSET 1.254608 7.132141 0.375429
												}
											}
										}
									}
								}
								JOINT RightHandIndex1
								{
									OFFSET -21.310577 -0.490082 6.209344
									CHANNELS 3 Xrotation Yrotation Zrotation
									JOINT RightHandIndex2
									{
										OFFSET -7.536453 0.000000 0.000000
										CHANNELS 3 Xrotation Yrotation Zrotation
										JOINT RightHandIndex3
										{
											OFFSET -7.512344 0.000000 0.000000
											CHANNELS 3 Xrotation Yrotation Zrotation
											JOINT RightHandIndex4
											{
												OFFSET -10.212402 0.000000 0.000001
												CHANNELS 3 Xrotation Yrotation Zrotation
												End Site
												{
													OFFSET 5.180801 8.690506 1.388433
												}
											}
										}
									}
								}
								JOINT RightHandMiddle1
								{
									OFFSET -23.373947 0.000000 0.000001
									CHANNELS 3 Xrotation Yrotation Zrotation
									JOINT RightHandMiddle2
									{
										OFFSET -6.996567 0.000000 0.000000
										CHANNELS 3 Xrotation Yrotation Zrotation
										JOINT RightHandMiddle3
										{
											OFFSET -7.015945 0.000000 0.000000
											CHANNELS 3 Xrotation Yrotation Zrotation
											JOINT RightHandMiddle4
											{
												OFFSET -7.721573 0.000000 0.000000
												CHANNELS 3 Xrotation Yrotation Zrotation
												End Site
												{
													OFFSET 4.651108 6.158463 0.251582
												}
											}
										}
									}
								}
								JOINT RightHandRing1
								{
									OFFSET -22.726120 -0.094986 -6.500475
									CHANNELS 3 Xrotation Yrotation Zrotation
									JOINT RightHandRing2
									{
										OFFSET -6.408615 0.000000 0.000000
										CHANNELS 3 Xrotation Yrotation Zrotation
										JOINT RightHandRing3
										{
											OFFSET -6.150223 0.000000 0.000000
											CHANNELS 3 Xrotation Yrotation Zrotation
											JOINT RightHandRing4
											{
												OFFSET -6.145386 0.000000 0.000000
												CHANNELS 3 Xrotation Yrotation Zrotation
												End Site
												{
													OFFSET 3.671402 4.923981 -0.202372
												}
											}
										}
									}
								}
								JOINT RightHandPinky1
								{
									OFFSET -18.920792 -0.453171 -11.426712
									CHANNELS 3 Xrotation Yrotation Zrotation
									JOINT RightHandPinky2
									{
										OFFSET -4.919586 0.000000 0.000000
										CHANNELS 3 Xrotation Yrotation Zrotation
										JOINT RightHandPinky3
										{
											OFFSET -5.233047 0.000000 0.000000
											CHANNELS 3 Xrotation Yrotation Zrotation
											JOINT RightHandPinky4
											{
												OFFSET -5.571716 0.000000 0.000000
												CHANNELS 3 Xrotation Yrotation Zrotation
												End Site
												{
													OFFSET 3.459808 4.342407 -0.466164
												}
											}
										}
									}
								}
							}
						}
					}
				}
			}
		}
	}
	JOINT LeftUpLeg
	{
		OFFSET 19.899099 -7.885101 -3.429500
		CHANNELS 3 Xrotation Yrotation Zrotation
		JOINT LeftLeg
		{
			OFFSET 1.745560 -36.997807 10.304700
			CHANNELS 3 Xrotation Yrotation Zrotation
			JOINT LeftFoot
			{
				OFFSET -1.745558 -29.803308 -13.615400
				CHANNELS 3 Xrotation Yrotation Zrotation
				JOINT LeftToeBase
				{
					OFFSET 1.181900 -18.539904 15.226099
					CHANNELS 3 Xrotation Yrotation Zrotation
					JOINT LeftToe_End
					{
						OFFSET -0.863701 1.402801 16.534700
						CHANNELS 3 Xrotation Yrotation Zrotation
						End Site
						{
							OFFSET 0.000000 16.616566 0.000000
						}
					}
				}
			}
		}
	}
	JOINT RightUpLeg
	{
		OFFSET -19.899099 -7.885101 -3.429500
		CHANNELS 3 Xrotation Yrotation Zrotation
		JOINT RightLeg
		{
			OFFSET -1.745560 -36.997807 10.304700
			CHANNELS 3 Xrotation Yrotation Zrotation
			JOINT RightFoot
			{
				OFFSET 1.745558 -29.803308 -13.615400
				CHANNELS 3 Xrotation Yrotation Zrotation
				JOINT RightToeBase
				{
					OFFSET -1.181900 -18.539904 15.226099
					CHANNELS 3 Xrotation Yrotation Zrotation
					JOINT RightToe_End
					{
						OFFSET 0.863701 1.402801 16.534700
						CHANNELS 3 Xrotation Yrotation Zrotation
						End Site
						{
							OFFSET 0.000000 16.616566 0.000000
						}
					}
				}
			}
		}
	}
}
MOTION
Frames: 4
Frame Time: 0.033333
-0.467496 72.008247 0.691645 -5.399178 -46.316612 -0.344607 9.440921 7.291865 -1.527985 2.187715 0.989899 -0.915631 2.202830 0.982771 -0.894152 0.084650 13.220560 4.538681 8.920924 20.138142 -4.130235 0.000000 -0.000000 0.000000 1.117176 3.546347 -8.633310 -53.487024 4.935517 -51.502990 -0.000039 -106.358094 -0.000065 1.988605 -7.706151 -15.869219 -6.141227 -11.690807 -6.761720 9.914164 42.595512 3.409849 -0.422809 8.108076 27.509087 0.000000 0.000002 -0.000001 -3.762447 9.063684 -45.253832 5.342538 5.828998 -85.005317 8.716847 5.103342 -119.369181 -0.000000 -0.000001 -0.000006 0.469723 4.966821 -39.799444 8.181044 5.368597 -113.502998 3.200495 5.218120 -63.022975 -0.000000 0.000000 0.000003 -0.461477 3.841589 -39.722686 6.450755 5.820357 -95.892857 2.182894 4.561566 -51.127740 0.000000 0.000001 0.000007 0.255312 3.378205 -45.814348 5.654101 5.847764 -88.067448 2.162147 4.544806 -50.866362 -0.000000 0.000001 0.000001 3.036130 13.027197 -5.371408 -48.713739 27.172835 83.457091 0.000082 105.988307 -0.000058 -8.345368 17.548090 8.775663 -7.341100 13.749655 7.412339 9.855813 -44.489089 -3.903221 -0.115800 -14.513071 -28.973874 -0.000000 -0.000003 0.000001 -0.124376 -2.384770 45.108878 4.500595 -4.654553 88.071130 1.723228 -3.618369 50.920092 -0.000001 0.000001 -0.000001 -0.761629 -2.932905 39.031061 5.133889 -4.632756 95.881663 1.739744 -3.631702 51.181377 -0.000001 -0.000000 -0.000004 0.154764 -4.068815 39.122678 6.509735 -4.273578 113.462857 2.549589 -4.153919 63.067358 -0.000001 -0.000002 -0.000005 -4.198884 -8.025506 44.637796 4.252912 -4.639642 85.014825 6.935986 -4.062643 119.322285 0.000003 -0.000001 -0.000003 -33.569304 4.026717 22.749314 57.659364 -10.178570 2.632266 -21.484251 -5.744467 -18.032939 -1.594036 -0.000009 0.000005 -0.000000 -0.000002 -0.000000 -13.809870 -10.723371 -37.478908 58.014029 0.789445 -2.915698 -32.477580 -13.075771 26.173063 -0.013003 0.000013 -0.000010 0.000000 0.000000 -0.000000 
-0.337757 71.342262 1.314508 -6.093844 -46.277339 -0.861923 10.014490 7.450177 -1.815571 2.116526 1.009202 -0.861747 2.130500 1.004332 -0.842312 -0.036160 13.156811 4.751925 8.699348 19.888596 -3.902443 0.000000 0.000000 -0.000000 1.172886 3.575166 -8.776608 -52.128994 4.621718 -51.882827 0.000204 -106.314770 0.000191 2.335465 -7.626629 -15.907587 -6.141228 -11.690805 -6.761714 9.914171 42.595505 3.409848 -0.422812 8.108075 27.509089 -0.000001 0.000001 -0.000001 -3.762445 9.063689 -45.253832 5.342536 5.828997 -85.005317 8.716852 5.103347 -119.369181 -0.000000 -0.000001 -0.000002 0.469723 4.966825 -39.799441 8.181047 5.368600 -113.502991 3.200495 5.218119 -63.022975 -0.000001 0.000005 0.000004 -0.461475 3.841591 -39.722686 6.450758 5.820355 -95.892864 2.182891 4.561567 -51.127740 -0.000000 -0.000002 0.000009 0.255313 3.378203 -45.814348 5.654107 5.847759 -88.067441 2.162141 4.544805 -50.866359 -0.000000 -0.000000 -0.000001 3.076632 12.982205 -5.285501 -47.683606 27.645182 83.408419 -0.000095 104.987002 0.000111 -6.911570 18.323145 8.936294 -7.341100 13.749663 7.412336 9.855818 -44.489083 -3.903227 -0.115791 -14.513075 -28.973874 0.000001 -0.000003 0.000001 -0.124381 -2.384766 45.108874 4.500589 -4.654552 88.071130 1.723227 -3.618370 50.920098 0.000000 0.000000 0.000004 -0.761631 -2.932903 39.031065 5.133886 -4.632756 95.881663 1.739741 -3.631699 51.181377 0.000002 0.000002 -0.000008 0.154762 -4.068818 39.122678 6.509728 -4.273580 113.462857 2.549591 -4.153920 63.067358 -0.000000 0.000003 -0.000005 -4.198883 -8.025505 44.637793 4.252910 -4.639642 85.014825 6.935986 -4.062647 119.322285 -0.000001 -0.000000 0.000006 -34.695435 2.909009 22.210126 60.635401 -9.539082 3.313439 -20.314668 -5.934323 -18.739324 -3.526077 -0.000504 0.228842 0.000000 -0.000002 -0.000000 -13.131173 -10.609597 -38.415002 58.452861 1.493463 -2.828849 -32.877413 -13.418228 26.701170 0.023281 -0.000002 0.051800 -0.000000 0.000000 -0.000000 
-0.011929 70.272079 2.439991 -7.097178 -46.554382 -1.499350 10.625847 7.857941 -1.920137 2.050218 1.061654 -0.850895 2.063402 1.057608 -0.833892 -0.107592 13.182325 4.959995 8.452951 19.824170 -3.687702 0.000000 0.000000 -0.000001 1.209836 3.693791 -8.947906 -50.175499 4.648328 -52.002581 -0.000039 -106.571360 -0.000070 2.001556 -7.772258 -15.825711 -6.141225 -11.690801 -6.761712 9.914163 42.595508 3.409849 -0.422806 8.108073 27.509085 0.000000 0.000002 -0.000002 -3.762443 9.063688 -45.253832 5.342536 5.829002 -85.005317 8.716848 5.103350 -119.369167 -0.000000 -0.000003 -0.000006 0.469721 4.966826 -39.799444 8.181048 5.368600 -113.502998 3.200491 5.218120 -63.022975 0.000000 -0.000000 0.000002 -0.461476 3.841595 -39.722686 6.450760 5.820350 -95.892857 2.182892 4.561568 -51.127740 0.000000 0.000000 0.000004 0.255314 3.378205 -45.814348 5.654100 5.847762 -88.067441 2.162143 4.544804 -50.866359 -0.000002 0.000001 0.000001 3.196501 13.006870 -5.137717 -47.216039 27.981029 83.478907 0.000068 103.851742 -0.000056 -5.795352 18.955554 9.076037 -7.341102 13.749655 7.412333 9.855814 -44.489089 -3.903226 -0.115790 -14.513073 -28.973874 -0.000000 -0.000004 0.000004 -0.124381 -2.384766 45.108878 4.500595 -4.654549 88.071130 1.723228 -3.618372 50.920102 -0.000000 -0.000001 -0.000001 -0.761630 -2.932906 39.031058 5.133889 -4.632756 95.881656 1.739739 -3.631703 51.181377 0.000001 -0.000000 -0.000004 0.154762 -4.068817 39.122671 6.509727 -4.273580 113.462857 2.549591 -4.153918 63.067358 -0.000000 -0.000002 -0.000005 -4.198883 -8.025504 44.637800 4.252911 -4.639639 85.014832 6.935988 -4.062645 119.322285 0.000003 -0.000003 0.000003 -37.319105 0.882380 22.640402 64.616014 -12.299206 3.684032 -16.180114 -5.101172 -22.716092 -6.708015 -0.208264 4.553264 -0.000000 -0.000001 -0.000000 -12.784705 -10.497762 -40.267899 59.086027 3.160256 -3.037752 -33.225711 -13.871052 27.408434 0.023531 -0.000005 0.052321 0.000000 0.000000 -0.000001 
0.405254 68.909546 4.036133 -8.414130 -47.379591 -2.178562 11.283279 8.760072 -1.927430 2.053478 1.183450 -1.018421 2.068050 1.174717 -1.003712 -0.047209 13.281649 5.147822 8.254581 20.007103 -3.530871 0.000000 -0.000000 -0.000001 1.166206 4.109920 -9.176838 -46.706278 4.640435 -51.992971 0.000118 -107.445556 0.000111 0.863631 -7.824386 -15.283335 -6.141229 -11.690803 -6.761711 9.914167 42.595512 3.409847 -0.422812 8.108072 27.509091 -0.000001 0.000002 -0.000001 -3.762445 9.063689 -45.253828 5.342540 5.828997 -85.005317 8.716846 5.103348 -119.369181 -0.000000 -0.000003 -0.000003 0.469722 4.966825 -39.799447 8.181043 5.368598 -113.502991 3.200494 5.218119 -63.022975 -0.000001 0.000000 0.000003 -0.461479 3.841593 -39.722686 6.450756 5.820353 -95.892857 2.182895 4.561566 -51.127740 0.000001 -0.000002 0.000006 0.255310 3.378207 -45.814348 5.654103 5.847765 -88.067448 2.162140 4.544804 -50.866362 -0.000002 0.000000 -0.000004 3.495328 13.167556 -4.848839 -47.136727 28.216220 83.733468 -0.000072 103.062029 0.000090 -5.321901 19.023974 9.336490 -7.341100 13.749657 7.412341 9.855817 -44.489089 -3.903222 -0.115791 -14.513071 -28.973874 0.000001 -0.000002 0.000001 -0.124377 -2.384765 45.108878 4.500593 -4.654549 88.071130 1.723225 -3.618369 50.920095 -0.000000 -0.000003 -0.000001 -0.761630 -2.932901 39.031058 5.133890 -4.632758 95.881656 1.739738 -3.631703 51.181381 0.000000 0.000000 -0.000006 0.154763 -4.068816 39.122675 6.509725 -4.273581 113.462863 2.549592 -4.153914 63.067358 -0.000001 -0.000004 -0.000005 -4.198884 -8.025502 44.637793 4.252913 -4.639642 85.014832 6.935986 -4.062648 119.322285 -0.000001 0.000003 -0.000001 -40.178622 -1.457429 24.134154 68.661836 -14.626915 3.149621 -10.999790 -6.977767 -28.101155 -9.970230 -1.132277 9.623346 0.000000 -0.000001 0.000001 -13.023855 -10.277194 -42.976599 59.808299 5.790812 -3.779997 -33.408637 -14.322346 28.233984 0.023467 -0.000078 0.052493 0.000000 0.000001 -0.000000 
